<?xml version="1.0" encoding="UTF-8"?><svg id="Layer_1" xmlns="http://www.w3.org/2000/svg" viewBox="0 0 391.42 59.93"><defs><style>.cls-1{fill:#f4ae0f;}.cls-2{fill:#f4ae11;}.cls-3{fill:#f4af12;}.cls-4{fill:#f4af13;}.cls-5{fill:#f2f2f3;}.cls-6{fill:#f8f8f8;}.cls-7{fill:#f5f5f5;}.cls-8{fill:#e49a04;}.cls-9{fill:#e8e8e8;}.cls-10{fill:#cf9a37;}.cls-11{fill:#ca973c;}.cls-12{fill:#d99108;}.cls-13{fill:#0c0b0b;}</style></defs><path class="cls-13" d="M22.73,0c8.27,6.3,8.9,6.3,16.1,.04l2.6,3.06-3.45,2.9c.96,.82,1.85,1.55,2.72,2.32,2.51,2.22,3.94,4.99,4.81,8.24,.49,1.82,1.53,3.67,2.8,5.07,3.45,3.82,7.35,7.25,10.72,11.14,4.02,4.63,3.91,10.46-.29,14.6-3.33,3.27-8.32,4.65-13.67,1.07-.48-.32-.94-.66-.99-.69-3.54,3.64-6.98,7.22-10.46,10.76-1.87,1.9-3.77,1.85-5.62-.06-3.4-3.5-6.8-7-10.38-10.68-3.16,2.3-7.06,3.19-11.27,1.38C-.2,46.36-2.12,38.02,2.67,32.81c3.49-3.8,7.28-7.31,10.77-11.12,1.17-1.28,2.2-2.96,2.6-4.63,.96-3.96,2.63-7.32,5.99-9.73,.38-.28,.67-.69,1.07-1.13l-2.92-3.37,2.56-2.83Zm-2.24,31.99h20.85v-3.5c-1.97-.17-3.95-.45-5.92-.47-5.09-.07-10.18-.02-15.66-.02l.74,4Zm20.83,5.47c-.34-.32-.68-.91-1.03-.92-6.74-.05-13.49-.04-20.53-.04l.61,2.07,.15,2.41c6.02,0,11.96,.02,17.91,0,2.74-.01,3.23-.65,2.89-3.52Zm.05-13.9c1.1-6.42-.74-10.87-5.52-13.63-3.96-2.28-8.41-1.84-12.01,1.21-3.44,2.92-4.87,8.22-3.3,12.42h20.82Zm-25.67,3.23c-3.21,2.82-7.14,5.71-10.35,9.25-2.8,3.09-1.27,7.83,2.47,9.56,3.51,1.63,8.61-.36,8.56-3.52-.07-5.38-.47-10.76-.69-15.3Zm30.1-.65c-.27,5.69-.53,10.78-.74,15.86-.02,.38,.17,.82,.38,1.16,1.42,2.28,3.6,3.04,6.16,2.96,2.69-.09,4.47-1.53,5.6-3.87,1.08-2.24,.91-4.41-.89-6.17-3.29-3.23-6.7-6.35-10.51-9.95Zm-6.97,19.07H22.27c1.85,4.36,4.65,7.59,8.4,9.99,4.4-2.53,7.69-6.53,8.17-9.99Z"/><path class="cls-2" d="M200.2,15.68c10.46-6.52,15.41-6.36,20.38,.8,.64-.45,1.23-1,1.92-1.35,2.65-1.33,5.22-3.05,8.03-3.79,6.81-1.78,12.5,2.57,12.84,9.76,.32,6.73,.17,13.48,.35,20.22,.08,2.96,.46,5.91,.75,9.28-.52,.25-1.44,.83-2.43,1.12-4.15,1.24-6.54-.47-6.59-4.8-.07-7,0-13.99-.05-20.99,0-1.32-.17-2.66-.48-3.94-.7-2.85-2.93-4.34-5.64-3.26-2.4,.96-4.58,2.58-6.67,4.17-.59,.45-.68,1.79-.69,2.73-.05,8.49-.03,16.98-.03,25.87h-8.24c0-5.79,.03-11.36,0-16.93-.02-3.75,.02-7.5-.24-11.24-.3-4.19-3.07-5.88-6.97-4.29-1.59,.65-3.19,1.56-4.38,2.76-.93,.94-1.69,2.49-1.72,3.79-.16,7.66-.08,15.33-.08,22.99v3.01h-8.32v-4.44c0-10.75-.03-21.49,.05-32.24,0-1.19-.99-3.01,1.21-3.48,3.04-.65,5.4,.19,6.31,2.19,.29,.65,.46,1.35,.68,2.04Z"/><path class="cls-1" d="M88.47,11.66c5.66-.69,6.61-.2,8.11,4.06,8.86-7.21,16.73-5.65,20.13,.64,2.26-1.35,4.42-2.92,6.8-4.02,5.35-2.48,10.42-1.68,13.49,1.98,2.25,2.68,2.87,5.95,2.89,9.34,.03,6.08-.07,12.17,.05,18.25,.05,2.39,.54,4.77,.81,7.15,.05,.47,.13,1.34,0,1.37-1.93,.57-3.92,1.44-5.85,1.35-1.03-.05-2.32-1.66-2.87-2.85-.52-1.12-.26-2.62-.28-3.95-.1-7.08-.04-14.16-.32-21.23-.19-4.76-3.13-6.37-7.57-4.51-4.52,1.89-5.79,3.8-5.79,8.65v23.62h-8.15c0-.91,0-1.71,0-2.52,0-7.25,0-14.5,0-21.75,0-1,.04-2-.05-3-.45-5.35-3.34-7.07-8.17-4.78-3.4,1.61-5.65,3.69-5.41,8.16,.41,7.88,.12,15.8,.12,23.99h-7.95V11.66Z"/><path class="cls-1" d="M303.92,51.58h-8V11.87c4.77-1.35,6.67-.45,8.17,3.93,3.07-2.52,6.33-4.57,10.42-4.79,4.34-.23,7.58,1.48,9.68,5.55,.6-.42,1.11-.8,1.64-1.13,1.69-1.05,3.31-2.27,5.11-3.08,8.72-3.9,15.92,.46,16.36,10,.27,5.82-.02,11.66,.13,17.49,.08,3.13,.59,6.26,.87,9.39,.04,.45-.02,1.29-.19,1.33-2.04,.5-4.12,1.27-6.16,1.18-1.86-.08-2.58-1.88-2.6-3.72-.05-6.33-.06-12.66-.13-18.99-.02-2-.1-4-.33-5.98-.44-3.78-2.98-5.44-6.53-4.13-1.68,.62-3.21,1.69-4.74,2.67-1.6,1.03-2.12,2.53-2.1,4.48,.09,8.33,.04,16.66,.04,25.4h-8.15c0-8.46,.03-16.7-.02-24.94,0-1.57-.16-3.17-.52-4.69-.64-2.65-2.75-4.15-5.25-3.17-2.56,1-4.86,2.73-7.11,4.36-.53,.39-.58,1.65-.59,2.51-.04,7.75-.02,15.5-.02,23.25v2.76Z"/><path class="cls-4" d="M157.19,34.3c1,3.03,1.45,5.62,2.66,7.79,1.89,3.41,5.64,4.41,10.64,3.21,2.08-.5,4.14-1.23,6.09-2.12,1.39-.64,2.08-.31,2.81,.88,1.89,3.08,1.67,4.1-1.54,5.68-4.74,2.34-9.8,3.27-15.02,2.68-5.94-.67-9.94-4.11-11.89-9.66-2.39-6.77-2.6-13.72-.39-20.58,2.61-8.13,9.16-12.39,17.12-11.42,8.41,1.02,13.56,6.55,14.16,15.36,.18,2.63,.03,5.27,.03,8.2h-24.66Zm.83-6.38h15.77c.29-6.89-2.85-11.03-8.15-10.95-4.71,.07-8.07,4.85-7.62,10.95Z"/><path class="cls-3" d="M261.11,34.34c.71,2.57,1.08,4.79,1.93,6.82,1.63,3.91,5.71,5.42,11.12,4.16,2.17-.5,4.28-1.31,6.33-2.2,1.85-.81,2.46,.39,2.96,1.61,.53,1.3,2.08,2.73-.14,4.03-5.44,3.19-11.31,4.41-17.5,3.51-5.41-.79-9.13-4.06-10.94-9.11-2.83-7.86-2.99-15.82,.51-23.56,3.19-7.07,9.9-10.1,18.32-8.55,6.28,1.16,11.29,7.12,11.71,14.11,.14,2.32-.01,4.65,0,6.98,.01,1.69-.72,2.27-2.45,2.24-6.25-.09-12.49-.04-18.74-.04h-3.11Zm16.33-6.37c.22-7.08-2.67-11.02-7.87-11.01-4.81,0-8.2,4.68-7.91,11.01h15.78Z"/><path class="cls-2" d="M391.42,30.55c-.23,6.56-1.16,11.71-4.48,16.2-6.11,8.29-23.63,8.67-28.47-4.47-2.38-6.44-2.57-13.02-.57-19.57,2.42-7.93,8.38-12.27,16.28-12.08,8.19,.19,13.99,4.69,16.07,12.72,.7,2.71,.91,5.55,1.17,7.2Zm-8.14,1.12c-.7-3.18-1.15-6.4-2.15-9.45-1-3.04-3.24-5.02-6.64-5.18-3.2-.15-5.8,1.11-7.13,4.06-3.13,6.95-3.14,14.04-.03,20.99,1.41,3.16,4.2,4.27,7.64,3.98,3.28-.28,5.22-2.3,6.17-5.07,1.01-2.95,1.44-6.11,2.15-9.31Z"/><path class="cls-6" d="M41.38,23.56H20.56c-1.57-4.2-.14-9.5,3.3-12.42,3.59-3.05,8.05-3.5,12.01-1.21,4.78,2.76,6.62,7.22,5.52,13.63Z"/><path class="cls-7" d="M15.71,26.79c.22,4.54,.61,9.91,.69,15.3,.04,3.15-5.05,5.14-8.56,3.52-3.74-1.73-5.27-6.47-2.47-9.56,3.21-3.54,7.13-6.43,10.35-9.25Z"/><path class="cls-5" d="M45.81,26.14c3.81,3.59,7.21,6.71,10.51,9.95,1.79,1.76,1.97,3.93,.89,6.17-1.13,2.34-2.91,3.78-5.6,3.87-2.56,.08-4.74-.67-6.16-2.96-.21-.34-.4-.78-.38-1.16,.22-5.09,.47-10.17,.74-15.86Z"/><path class="cls-9" d="M38.84,45.21c-.48,3.46-3.77,7.46-8.17,9.99-3.75-2.41-6.55-5.63-8.4-9.99h16.57Z"/><path class="cls-12" d="M41.33,37.46c.34,2.86-.15,3.5-2.89,3.52-5.94,.03-11.88,0-17.91,0-.06-.95-.1-1.68-.15-2.41-.09-1.37,.7-1.61,1.88-1.6,5.64,.04,11.28,0,16.92,.04,.72,0,1.43,.29,2.15,.45Z"/><path class="cls-8" d="M41.35,28.49v3.5c-6.96,0-13.9,0-20.85,0,0-1.12,0-2.23,0-3.5h20.85Z"/><path class="cls-10" d="M41.35,28.49H20.49c0,1.27,0,2.39,0,3.5-.22-1.21-.45-2.42-.74-4,5.48,0,10.57-.05,15.66,.02,1.98,.03,3.95,.31,5.92,.47Z"/><path class="cls-11" d="M41.33,37.46c-.72-.16-1.43-.44-2.15-.45-5.64-.04-11.28,0-16.92-.04-1.18,0-1.97,.23-1.88,1.6-.18-.6-.35-1.2-.61-2.07,7.04,0,13.78-.01,20.53,.04,.34,0,.68,.6,1.03,.92Z"/></svg>